<mxfile host="65bd71144e">
    <diagram id="gE4e6rfNcS_uaxZ2d0MZ" name="Fluxo de transação">
        <mxGraphModel dx="1606" dy="552" grid="1" gridSize="10" guides="1" tooltips="1" connect="1" arrows="1" fold="1" page="1" pageScale="1" pageWidth="827" pageHeight="1169" math="0" shadow="0">
            <root>
                <mxCell id="0"/>
                <mxCell id="1" parent="0"/>
                <mxCell id="20" value="" style="group" parent="1" vertex="1" connectable="0">
                    <mxGeometry x="-753" y="150" width="680" height="480" as="geometry"/>
                </mxCell>
                <mxCell id="16" value="" style="rounded=0;whiteSpace=wrap;html=1;" parent="20" vertex="1">
                    <mxGeometry width="680" height="480" as="geometry"/>
                </mxCell>
                <mxCell id="17" value="Fluxo de transferencia" style="text;html=1;strokeColor=none;fillColor=none;align=center;verticalAlign=middle;whiteSpace=wrap;rounded=0;" parent="20" vertex="1">
                    <mxGeometry x="200" y="30" width="280" height="30" as="geometry"/>
                </mxCell>
                <mxCell id="19" value="" style="group" parent="20" vertex="1" connectable="0">
                    <mxGeometry x="75" y="100" width="530" height="350" as="geometry"/>
                </mxCell>
                <mxCell id="2" value="Cliente" style="rounded=0;whiteSpace=wrap;html=1;" parent="19" vertex="1">
                    <mxGeometry x="70" width="120" height="60" as="geometry"/>
                </mxCell>
                <mxCell id="3" value="Lojista" style="rounded=0;whiteSpace=wrap;html=1;" parent="19" vertex="1">
                    <mxGeometry x="410" width="120" height="60" as="geometry"/>
                </mxCell>
                <mxCell id="8" style="edgeStyle=none;html=1;entryX=0;entryY=0.5;entryDx=0;entryDy=0;" parent="19" source="2" target="3" edge="1">
                    <mxGeometry relative="1" as="geometry"/>
                </mxCell>
                <mxCell id="10" style="edgeStyle=none;html=1;entryX=0;entryY=0.833;entryDx=0;entryDy=0;exitX=1;exitY=0.5;exitDx=0;exitDy=0;entryPerimeter=0;" parent="19" source="4" target="3" edge="1">
                    <mxGeometry relative="1" as="geometry"/>
                </mxCell>
                <mxCell id="4" value="Cliente" style="rounded=0;whiteSpace=wrap;html=1;" parent="19" vertex="1">
                    <mxGeometry x="70" y="145" width="120" height="60" as="geometry"/>
                </mxCell>
                <mxCell id="5" value="Lojista" style="rounded=0;whiteSpace=wrap;html=1;" parent="19" vertex="1">
                    <mxGeometry x="410" y="145" width="120" height="60" as="geometry"/>
                </mxCell>
                <mxCell id="13" style="edgeStyle=none;html=1;exitX=0;exitY=0.5;exitDx=0;exitDy=0;entryX=0;entryY=0.5;entryDx=0;entryDy=0;" parent="19" source="6" target="2" edge="1">
                    <mxGeometry relative="1" as="geometry">
                        <Array as="points">
                            <mxPoint y="320"/>
                            <mxPoint y="30"/>
                        </Array>
                    </mxGeometry>
                </mxCell>
                <mxCell id="6" value="Cliente" style="rounded=0;whiteSpace=wrap;html=1;" parent="19" vertex="1">
                    <mxGeometry x="70" y="290" width="120" height="60" as="geometry"/>
                </mxCell>
                <mxCell id="9" style="edgeStyle=none;html=1;entryX=0;entryY=0.25;entryDx=0;entryDy=0;exitX=1;exitY=0.5;exitDx=0;exitDy=0;" parent="19" source="2" target="5" edge="1">
                    <mxGeometry relative="1" as="geometry">
                        <mxPoint x="200" y="40" as="sourcePoint"/>
                        <mxPoint x="420" y="40" as="targetPoint"/>
                    </mxGeometry>
                </mxCell>
                <mxCell id="7" style="edgeStyle=none;html=1;" parent="19" source="2" target="6" edge="1">
                    <mxGeometry relative="1" as="geometry">
                        <mxPoint x="130" y="140" as="targetPoint"/>
                        <Array as="points">
                            <mxPoint x="130" y="120"/>
                            <mxPoint x="30" y="120"/>
                            <mxPoint x="30" y="240"/>
                            <mxPoint x="130" y="240"/>
                        </Array>
                    </mxGeometry>
                </mxCell>
                <mxCell id="11" style="edgeStyle=none;html=1;exitX=1;exitY=0.5;exitDx=0;exitDy=0;entryX=0;entryY=0.5;entryDx=0;entryDy=0;" parent="19" source="4" target="5" edge="1">
                    <mxGeometry relative="1" as="geometry">
                        <mxPoint x="200" y="155" as="sourcePoint"/>
                        <mxPoint x="400" y="180" as="targetPoint"/>
                    </mxGeometry>
                </mxCell>
                <mxCell id="43" value="" style="group" parent="20" vertex="1" connectable="0">
                    <mxGeometry x="543" y="400" width="120" height="60" as="geometry"/>
                </mxCell>
                <mxCell id="41" value="" style="rounded=0;whiteSpace=wrap;html=1;" parent="43" vertex="1">
                    <mxGeometry width="120" height="60" as="geometry"/>
                </mxCell>
                <mxCell id="40" value="" style="endArrow=classic;html=1;" parent="43" edge="1">
                    <mxGeometry width="50" height="50" relative="1" as="geometry">
                        <mxPoint x="30" y="45" as="sourcePoint"/>
                        <mxPoint x="100" y="45" as="targetPoint"/>
                    </mxGeometry>
                </mxCell>
                <mxCell id="42" value="Transferência" style="text;html=1;strokeColor=none;fillColor=none;align=center;verticalAlign=middle;whiteSpace=wrap;rounded=0;" parent="43" vertex="1">
                    <mxGeometry x="30" width="60" height="30" as="geometry"/>
                </mxCell>
            </root>
        </mxGraphModel>
    </diagram>
    <diagram id="UM0v-lTHW9CHEnLqewXC" name="Caso de uso">
        <mxGraphModel dx="1903" dy="1931" grid="0" gridSize="10" guides="1" tooltips="1" connect="1" arrows="1" fold="1" page="1" pageScale="1" pageWidth="827" pageHeight="1169" math="0" shadow="0">
            <root>
                <mxCell id="0"/>
                <mxCell id="1" parent="0"/>
                <mxCell id="HDBPOV18R0nT2LrPAcoY-28" value="" style="rounded=0;whiteSpace=wrap;html=1;fontSize=8;movable=1;resizable=1;rotatable=1;deletable=1;editable=1;connectable=1;" parent="1" vertex="1">
                    <mxGeometry x="-236.00265822784812" y="-531" width="1191.0126582278483" height="1302" as="geometry"/>
                </mxCell>
                <mxCell id="HDBPOV18R0nT2LrPAcoY-27" value="" style="group;movable=1;resizable=1;rotatable=1;deletable=1;editable=1;connectable=1;" parent="1" vertex="1" connectable="0">
                    <mxGeometry x="-104" y="-5" width="970" height="700" as="geometry"/>
                </mxCell>
                <mxCell id="HDBPOV18R0nT2LrPAcoY-1" value="Cliente" style="shape=umlActor;verticalLabelPosition=bottom;verticalAlign=top;html=1;outlineConnect=0;" parent="HDBPOV18R0nT2LrPAcoY-27" vertex="1">
                    <mxGeometry x="121.25" y="154.75" width="125.85443037974684" height="287" as="geometry"/>
                </mxCell>
                <mxCell id="HDBPOV18R0nT2LrPAcoY-4" value="Efetuar&lt;br&gt;Transferência" style="ellipse;whiteSpace=wrap;html=1;aspect=fixed;" parent="HDBPOV18R0nT2LrPAcoY-27" vertex="1">
                    <mxGeometry x="415.9335443037975" y="70.75" width="110.50632911392405" height="110.50632911392405" as="geometry"/>
                </mxCell>
                <mxCell id="HDBPOV18R0nT2LrPAcoY-5" style="edgeStyle=none;html=1;endArrow=none;endFill=0;" parent="HDBPOV18R0nT2LrPAcoY-27" source="HDBPOV18R0nT2LrPAcoY-1" target="HDBPOV18R0nT2LrPAcoY-4" edge="1">
                    <mxGeometry relative="1" as="geometry"/>
                </mxCell>
                <mxCell id="HDBPOV18R0nT2LrPAcoY-7" value="Lojista" style="shape=umlActor;verticalLabelPosition=bottom;verticalAlign=top;html=1;outlineConnect=0;" parent="HDBPOV18R0nT2LrPAcoY-27" vertex="1">
                    <mxGeometry x="722.8955696202532" y="154.75" width="125.85443037974684" height="287" as="geometry"/>
                </mxCell>
                <mxCell id="PJDmcDdagbw5boKrrIEq-1" style="edgeStyle=none;html=1;dashed=1;" edge="1" parent="HDBPOV18R0nT2LrPAcoY-27" source="HDBPOV18R0nT2LrPAcoY-19" target="HDBPOV18R0nT2LrPAcoY-4">
                    <mxGeometry relative="1" as="geometry">
                        <Array as="points">
                            <mxPoint x="471.1867088607595" y="238.75"/>
                        </Array>
                    </mxGeometry>
                </mxCell>
                <mxCell id="PJDmcDdagbw5boKrrIEq-3" value="&amp;lt;&amp;lt;extends&amp;gt;&amp;gt;" style="edgeLabel;html=1;align=center;verticalAlign=middle;resizable=0;points=[];fontSize=8;" vertex="1" connectable="0" parent="PJDmcDdagbw5boKrrIEq-1">
                    <mxGeometry x="-0.0937" relative="1" as="geometry">
                        <mxPoint as="offset"/>
                    </mxGeometry>
                </mxCell>
                <mxCell id="HDBPOV18R0nT2LrPAcoY-19" value="Visualizar Saldo" style="ellipse;whiteSpace=wrap;html=1;aspect=fixed;" parent="HDBPOV18R0nT2LrPAcoY-27" vertex="1">
                    <mxGeometry x="415.9335443037975" y="280.75" width="110.50632911392405" height="110.50632911392405" as="geometry"/>
                </mxCell>
                <mxCell id="HDBPOV18R0nT2LrPAcoY-20" style="edgeStyle=none;html=1;entryX=0;entryY=0.5;entryDx=0;entryDy=0;endArrow=none;endFill=0;" parent="HDBPOV18R0nT2LrPAcoY-27" source="HDBPOV18R0nT2LrPAcoY-1" target="HDBPOV18R0nT2LrPAcoY-19" edge="1">
                    <mxGeometry relative="1" as="geometry"/>
                </mxCell>
                <mxCell id="HDBPOV18R0nT2LrPAcoY-21" style="edgeStyle=none;html=1;endArrow=none;endFill=0;" parent="HDBPOV18R0nT2LrPAcoY-27" source="HDBPOV18R0nT2LrPAcoY-7" target="HDBPOV18R0nT2LrPAcoY-19" edge="1">
                    <mxGeometry relative="1" as="geometry"/>
                </mxCell>
                <mxCell id="HDBPOV18R0nT2LrPAcoY-22" value="Receber Transferência" style="ellipse;whiteSpace=wrap;html=1;aspect=fixed;" parent="HDBPOV18R0nT2LrPAcoY-27" vertex="1">
                    <mxGeometry x="415.9335443037975" y="518.75" width="110.50632911392405" height="110.50632911392405" as="geometry"/>
                </mxCell>
                <mxCell id="HDBPOV18R0nT2LrPAcoY-23" style="edgeStyle=none;html=1;endArrow=none;endFill=0;" parent="HDBPOV18R0nT2LrPAcoY-27" source="HDBPOV18R0nT2LrPAcoY-1" target="HDBPOV18R0nT2LrPAcoY-22" edge="1">
                    <mxGeometry relative="1" as="geometry"/>
                </mxCell>
                <mxCell id="HDBPOV18R0nT2LrPAcoY-24" style="edgeStyle=none;html=1;endArrow=none;endFill=0;" parent="HDBPOV18R0nT2LrPAcoY-27" source="HDBPOV18R0nT2LrPAcoY-7" target="HDBPOV18R0nT2LrPAcoY-22" edge="1">
                    <mxGeometry relative="1" as="geometry"/>
                </mxCell>
                <mxCell id="HDBPOV18R0nT2LrPAcoY-29" value="&lt;font style=&quot;font-size: 15px;&quot;&gt;&lt;b&gt;Caso de uso de transação&lt;/b&gt;&lt;/font&gt;" style="text;html=1;strokeColor=none;fillColor=none;align=center;verticalAlign=middle;whiteSpace=wrap;rounded=0;fontSize=8;" parent="HDBPOV18R0nT2LrPAcoY-27" vertex="1">
                    <mxGeometry x="296.0049367088608" y="-490" width="294.6835443037975" height="42" as="geometry"/>
                </mxCell>
                <mxCell id="PJDmcDdagbw5boKrrIEq-20" value="Sistema de pagamento" style="shape=umlActor;verticalLabelPosition=bottom;verticalAlign=top;html=1;outlineConnect=0;" vertex="1" parent="1">
                    <mxGeometry x="16" y="-155" width="63.58" height="145" as="geometry"/>
                </mxCell>
                <mxCell id="PJDmcDdagbw5boKrrIEq-23" style="edgeStyle=none;html=1;fontSize=8;endArrow=none;endFill=0;" edge="1" parent="1" source="HDBPOV18R0nT2LrPAcoY-4" target="PJDmcDdagbw5boKrrIEq-20">
                    <mxGeometry relative="1" as="geometry"/>
                </mxCell>
                <mxCell id="PJDmcDdagbw5boKrrIEq-62" style="edgeStyle=none;html=1;fontSize=8;endArrow=classic;endFill=1;" edge="1" parent="1" source="PJDmcDdagbw5boKrrIEq-55" target="HDBPOV18R0nT2LrPAcoY-7">
                    <mxGeometry relative="1" as="geometry">
                        <Array as="points">
                            <mxPoint x="848" y="-178"/>
                            <mxPoint x="848" y="-36"/>
                            <mxPoint x="854" y="293"/>
                        </Array>
                    </mxGeometry>
                </mxCell>
                <mxCell id="IqmSapKYsTxv8Ejgi-Nd-1" style="edgeStyle=none;html=1;fontSize=8;endArrow=classic;endFill=1;" edge="1" parent="1" source="PJDmcDdagbw5boKrrIEq-55" target="HDBPOV18R0nT2LrPAcoY-1">
                    <mxGeometry relative="1" as="geometry">
                        <Array as="points">
                            <mxPoint x="520" y="-253"/>
                            <mxPoint x="41" y="-238"/>
                            <mxPoint x="-94" y="-234"/>
                            <mxPoint x="-113" y="129"/>
                        </Array>
                    </mxGeometry>
                </mxCell>
                <mxCell id="PJDmcDdagbw5boKrrIEq-55" value="Sistema de notificação" style="shape=umlActor;verticalLabelPosition=bottom;verticalAlign=top;html=1;outlineConnect=0;" vertex="1" parent="1">
                    <mxGeometry x="602" y="-251" width="63.58" height="145" as="geometry"/>
                </mxCell>
                <mxCell id="PJDmcDdagbw5boKrrIEq-60" style="edgeStyle=none;html=1;fontSize=8;endArrow=none;endFill=0;" edge="1" parent="1" source="HDBPOV18R0nT2LrPAcoY-4" target="PJDmcDdagbw5boKrrIEq-55">
                    <mxGeometry relative="1" as="geometry">
                        <Array as="points">
                            <mxPoint x="352" y="-21"/>
                            <mxPoint x="530" y="-178"/>
                        </Array>
                    </mxGeometry>
                </mxCell>
            </root>
        </mxGraphModel>
    </diagram>
    <diagram id="nFbeEtIX88PI9zth0EAV" name="Especificação dos casos de uso">
        <mxGraphModel dx="2637" dy="696" grid="1" gridSize="10" guides="1" tooltips="1" connect="1" arrows="1" fold="1" page="1" pageScale="1" pageWidth="827" pageHeight="1169" math="0" shadow="0">
            <root>
                <mxCell id="0"/>
                <mxCell id="1" parent="0"/>
                <mxCell id="SWnNDUKhZ4qhqCSgWOv_-14" value="Nome" style="rounded=0;whiteSpace=wrap;html=1;fontSize=15;align=left;" parent="1" vertex="1">
                    <mxGeometry x="14" y="120" width="400" height="40" as="geometry"/>
                </mxCell>
                <mxCell id="SWnNDUKhZ4qhqCSgWOv_-15" value="&lt;div style=&quot;&quot;&gt;&lt;span style=&quot;background-color: initial;&quot;&gt;Efetuar transferência&lt;/span&gt;&lt;/div&gt;" style="rounded=0;whiteSpace=wrap;html=1;fontSize=15;align=left;" parent="1" vertex="1">
                    <mxGeometry x="414" y="120" width="400" height="40" as="geometry"/>
                </mxCell>
                <mxCell id="SWnNDUKhZ4qhqCSgWOv_-16" value="Atores" style="rounded=0;whiteSpace=wrap;html=1;fontSize=15;align=left;" parent="1" vertex="1">
                    <mxGeometry x="14" y="160" width="400" height="40" as="geometry"/>
                </mxCell>
                <mxCell id="SWnNDUKhZ4qhqCSgWOv_-17" value="Cliente" style="rounded=0;whiteSpace=wrap;html=1;fontSize=15;align=left;" parent="1" vertex="1">
                    <mxGeometry x="414" y="160" width="400" height="40" as="geometry"/>
                </mxCell>
                <mxCell id="SWnNDUKhZ4qhqCSgWOv_-18" value="Resumo" style="rounded=0;whiteSpace=wrap;html=1;fontSize=15;align=left;" parent="1" vertex="1">
                    <mxGeometry x="14" y="200" width="400" height="80" as="geometry"/>
                </mxCell>
                <mxCell id="SWnNDUKhZ4qhqCSgWOv_-19" value="&lt;div style=&quot;&quot;&gt;&lt;span style=&quot;background-color: initial;&quot;&gt;Clientes podem efetuar transferencias para lojistas e outros clientes.&lt;/span&gt;&lt;/div&gt;" style="rounded=0;whiteSpace=wrap;html=1;fontSize=15;align=left;" parent="1" vertex="1">
                    <mxGeometry x="414" y="200" width="400" height="80" as="geometry"/>
                </mxCell>
                <mxCell id="SWnNDUKhZ4qhqCSgWOv_-21" value="Pré-Condições" style="rounded=0;whiteSpace=wrap;html=1;fontSize=15;align=left;" parent="1" vertex="1">
                    <mxGeometry x="14" y="280" width="400" height="40" as="geometry"/>
                </mxCell>
                <mxCell id="SWnNDUKhZ4qhqCSgWOv_-22" value="Existir saldo na carteira do cliente" style="rounded=0;whiteSpace=wrap;html=1;fontSize=15;align=left;" parent="1" vertex="1">
                    <mxGeometry x="414" y="280" width="400" height="40" as="geometry"/>
                </mxCell>
                <mxCell id="SWnNDUKhZ4qhqCSgWOv_-23" value="Pós-Condições" style="rounded=0;whiteSpace=wrap;html=1;fontSize=15;align=left;" parent="1" vertex="1">
                    <mxGeometry x="14" y="320" width="400" height="40" as="geometry"/>
                </mxCell>
                <mxCell id="SWnNDUKhZ4qhqCSgWOv_-24" value="Receber notificação da transferência" style="rounded=0;whiteSpace=wrap;html=1;fontSize=15;align=left;" parent="1" vertex="1">
                    <mxGeometry x="414" y="320" width="400" height="40" as="geometry"/>
                </mxCell>
                <mxCell id="SWnNDUKhZ4qhqCSgWOv_-25" value="&lt;b&gt;Fluxo Principal&lt;/b&gt;" style="rounded=0;whiteSpace=wrap;html=1;fontSize=15;align=left;" parent="1" vertex="1">
                    <mxGeometry x="14" y="360" width="800" height="40" as="geometry"/>
                </mxCell>
                <mxCell id="SWnNDUKhZ4qhqCSgWOv_-29" value="Ações do Ator" style="rounded=0;whiteSpace=wrap;html=1;fontSize=15;align=left;" parent="1" vertex="1">
                    <mxGeometry x="14" y="400" width="400" height="40" as="geometry"/>
                </mxCell>
                <mxCell id="SWnNDUKhZ4qhqCSgWOv_-30" value="Ações do Sistema" style="rounded=0;whiteSpace=wrap;html=1;fontSize=15;align=left;" parent="1" vertex="1">
                    <mxGeometry x="414" y="400" width="400" height="40" as="geometry"/>
                </mxCell>
                <mxCell id="SWnNDUKhZ4qhqCSgWOv_-31" value="1. Informar a conta de transferência e o valor" style="rounded=0;whiteSpace=wrap;html=1;fontSize=15;align=left;" parent="1" vertex="1">
                    <mxGeometry x="14" y="440" width="400" height="40" as="geometry"/>
                </mxCell>
                <mxCell id="SWnNDUKhZ4qhqCSgWOv_-32" value="" style="rounded=0;whiteSpace=wrap;html=1;fontSize=15;align=left;" parent="1" vertex="1">
                    <mxGeometry x="414" y="440" width="400" height="40" as="geometry"/>
                </mxCell>
                <mxCell id="SWnNDUKhZ4qhqCSgWOv_-33" value="" style="rounded=0;whiteSpace=wrap;html=1;fontSize=15;align=left;" parent="1" vertex="1">
                    <mxGeometry x="14" y="560" width="400" height="40" as="geometry"/>
                </mxCell>
                <mxCell id="SWnNDUKhZ4qhqCSgWOv_-34" value="" style="rounded=0;whiteSpace=wrap;html=1;fontSize=15;align=left;" parent="1" vertex="1">
                    <mxGeometry x="14" y="600" width="400" height="40" as="geometry"/>
                </mxCell>
                <mxCell id="SWnNDUKhZ4qhqCSgWOv_-35" value="3. Validar saldo do cliente" style="rounded=0;whiteSpace=wrap;html=1;fontSize=15;align=left;" parent="1" vertex="1">
                    <mxGeometry x="414" y="560" width="400" height="40" as="geometry"/>
                </mxCell>
                <mxCell id="SWnNDUKhZ4qhqCSgWOv_-36" value="4. Consultar serviço externo de validação da transferência" style="rounded=0;whiteSpace=wrap;html=1;fontSize=15;align=left;" parent="1" vertex="1">
                    <mxGeometry x="414" y="600" width="400" height="40" as="geometry"/>
                </mxCell>
                <mxCell id="SWnNDUKhZ4qhqCSgWOv_-37" value="5. Notificar cliente e recebidor da transferência efetuada" style="rounded=0;whiteSpace=wrap;html=1;fontSize=15;align=left;" parent="1" vertex="1">
                    <mxGeometry x="414" y="640" width="400" height="40" as="geometry"/>
                </mxCell>
                <mxCell id="SWnNDUKhZ4qhqCSgWOv_-38" value="" style="rounded=0;whiteSpace=wrap;html=1;fontSize=15;align=left;" parent="1" vertex="1">
                    <mxGeometry x="14" y="640" width="400" height="40" as="geometry"/>
                </mxCell>
                <mxCell id="SWnNDUKhZ4qhqCSgWOv_-39" value="&lt;b&gt;Fluxo Alternativo (1)&lt;/b&gt;" style="rounded=0;whiteSpace=wrap;html=1;fontSize=15;align=left;" parent="1" vertex="1">
                    <mxGeometry x="14" y="680" width="800" height="40" as="geometry"/>
                </mxCell>
                <mxCell id="SWnNDUKhZ4qhqCSgWOv_-45" value="O cliente não possui o valor necessário para efetuar a transação, cancelar transação e devolver o saldo para o cliente" style="rounded=0;whiteSpace=wrap;html=1;fontSize=15;align=left;" parent="1" vertex="1">
                    <mxGeometry x="14" y="720" width="800" height="40" as="geometry"/>
                </mxCell>
                <mxCell id="SWnNDUKhZ4qhqCSgWOv_-47" value="&lt;b&gt;Fluxo Alternativo (2)&lt;/b&gt;" style="rounded=0;whiteSpace=wrap;html=1;fontSize=15;align=left;" parent="1" vertex="1">
                    <mxGeometry x="14" y="760" width="800" height="40" as="geometry"/>
                </mxCell>
                <mxCell id="SWnNDUKhZ4qhqCSgWOv_-48" value="O lojista tenta realizar a transação, cancelar transação e devolver o saldo para o lojista" style="rounded=0;whiteSpace=wrap;html=1;fontSize=15;align=left;" parent="1" vertex="1">
                    <mxGeometry x="14" y="800" width="800" height="40" as="geometry"/>
                </mxCell>
                <mxCell id="SWnNDUKhZ4qhqCSgWOv_-49" value="&lt;b&gt;Fluxo Alternativo (3)&lt;/b&gt;" style="rounded=0;whiteSpace=wrap;html=1;fontSize=15;align=left;" parent="1" vertex="1">
                    <mxGeometry x="14" y="840" width="800" height="40" as="geometry"/>
                </mxCell>
                <mxCell id="SWnNDUKhZ4qhqCSgWOv_-50" value="O cliente tenta realizar transação para um cliente inexistente, cancelar transação e devolver o saldo para o cliente" style="rounded=0;whiteSpace=wrap;html=1;fontSize=15;align=left;" parent="1" vertex="1">
                    <mxGeometry x="14" y="880" width="800" height="40" as="geometry"/>
                </mxCell>
                <mxCell id="SWnNDUKhZ4qhqCSgWOv_-51" value="" style="rounded=0;whiteSpace=wrap;html=1;fontSize=15;align=left;" parent="1" vertex="1">
                    <mxGeometry x="14" y="480" width="400" height="40" as="geometry"/>
                </mxCell>
                <mxCell id="SWnNDUKhZ4qhqCSgWOv_-52" value="2. Validar se o usuário existe" style="rounded=0;whiteSpace=wrap;html=1;fontSize=15;align=left;" parent="1" vertex="1">
                    <mxGeometry x="414" y="480" width="400" height="40" as="geometry"/>
                </mxCell>
                <mxCell id="Xe_aW2JwXNB1X_NBn5dn-1" value="Nome" style="rounded=0;whiteSpace=wrap;html=1;fontSize=15;align=left;" vertex="1" parent="1">
                    <mxGeometry x="-813" y="120" width="400" height="40" as="geometry"/>
                </mxCell>
                <mxCell id="Xe_aW2JwXNB1X_NBn5dn-2" value="&lt;div style=&quot;&quot;&gt;Receber transferência&lt;/div&gt;" style="rounded=0;whiteSpace=wrap;html=1;fontSize=15;align=left;" vertex="1" parent="1">
                    <mxGeometry x="-413" y="120" width="400" height="40" as="geometry"/>
                </mxCell>
                <mxCell id="Xe_aW2JwXNB1X_NBn5dn-3" value="Atores" style="rounded=0;whiteSpace=wrap;html=1;fontSize=15;align=left;" vertex="1" parent="1">
                    <mxGeometry x="-813" y="160" width="400" height="40" as="geometry"/>
                </mxCell>
                <mxCell id="Xe_aW2JwXNB1X_NBn5dn-4" value="Cliente, Lojista" style="rounded=0;whiteSpace=wrap;html=1;fontSize=15;align=left;" vertex="1" parent="1">
                    <mxGeometry x="-413" y="160" width="400" height="40" as="geometry"/>
                </mxCell>
                <mxCell id="Xe_aW2JwXNB1X_NBn5dn-5" value="Resumo" style="rounded=0;whiteSpace=wrap;html=1;fontSize=15;align=left;" vertex="1" parent="1">
                    <mxGeometry x="-813" y="200" width="400" height="80" as="geometry"/>
                </mxCell>
                <mxCell id="Xe_aW2JwXNB1X_NBn5dn-6" value="&lt;div style=&quot;&quot;&gt;Clientes e lojistas podem receber transferências&lt;/div&gt;" style="rounded=0;whiteSpace=wrap;html=1;fontSize=15;align=left;" vertex="1" parent="1">
                    <mxGeometry x="-413" y="200" width="400" height="80" as="geometry"/>
                </mxCell>
                <mxCell id="Xe_aW2JwXNB1X_NBn5dn-7" value="Pré-Condições" style="rounded=0;whiteSpace=wrap;html=1;fontSize=15;align=left;" vertex="1" parent="1">
                    <mxGeometry x="-813" y="280" width="400" height="40" as="geometry"/>
                </mxCell>
                <mxCell id="Xe_aW2JwXNB1X_NBn5dn-8" value="" style="rounded=0;whiteSpace=wrap;html=1;fontSize=15;align=left;" vertex="1" parent="1">
                    <mxGeometry x="-413" y="280" width="400" height="40" as="geometry"/>
                </mxCell>
                <mxCell id="Xe_aW2JwXNB1X_NBn5dn-9" value="Pós-Condições" style="rounded=0;whiteSpace=wrap;html=1;fontSize=15;align=left;" vertex="1" parent="1">
                    <mxGeometry x="-813" y="320" width="400" height="40" as="geometry"/>
                </mxCell>
                <mxCell id="Xe_aW2JwXNB1X_NBn5dn-10" value="Atualizar o saldo da carteira" style="rounded=0;whiteSpace=wrap;html=1;fontSize=15;align=left;" vertex="1" parent="1">
                    <mxGeometry x="-413" y="320" width="400" height="40" as="geometry"/>
                </mxCell>
                <mxCell id="Xe_aW2JwXNB1X_NBn5dn-11" value="&lt;b&gt;Fluxo Principal&lt;/b&gt;" style="rounded=0;whiteSpace=wrap;html=1;fontSize=15;align=left;" vertex="1" parent="1">
                    <mxGeometry x="-813" y="360" width="800" height="40" as="geometry"/>
                </mxCell>
                <mxCell id="Xe_aW2JwXNB1X_NBn5dn-12" value="Ações do Ator" style="rounded=0;whiteSpace=wrap;html=1;fontSize=15;align=left;" vertex="1" parent="1">
                    <mxGeometry x="-813" y="400" width="400" height="40" as="geometry"/>
                </mxCell>
                <mxCell id="Xe_aW2JwXNB1X_NBn5dn-13" value="Ações do Sistema" style="rounded=0;whiteSpace=wrap;html=1;fontSize=15;align=left;" vertex="1" parent="1">
                    <mxGeometry x="-413" y="400" width="400" height="40" as="geometry"/>
                </mxCell>
                <mxCell id="Xe_aW2JwXNB1X_NBn5dn-14" value="" style="rounded=0;whiteSpace=wrap;html=1;fontSize=15;align=left;" vertex="1" parent="1">
                    <mxGeometry x="-813" y="440" width="400" height="40" as="geometry"/>
                </mxCell>
                <mxCell id="Xe_aW2JwXNB1X_NBn5dn-15" value="1, Validar se o usuário existe que fez a transferência existe" style="rounded=0;whiteSpace=wrap;html=1;fontSize=15;align=left;" vertex="1" parent="1">
                    <mxGeometry x="-413" y="440" width="400" height="40" as="geometry"/>
                </mxCell>
                <mxCell id="Xe_aW2JwXNB1X_NBn5dn-16" value="" style="rounded=0;whiteSpace=wrap;html=1;fontSize=15;align=left;" vertex="1" parent="1">
                    <mxGeometry x="-813" y="520" width="400" height="40" as="geometry"/>
                </mxCell>
                <mxCell id="Xe_aW2JwXNB1X_NBn5dn-17" value="" style="rounded=0;whiteSpace=wrap;html=1;fontSize=15;align=left;" vertex="1" parent="1">
                    <mxGeometry x="-813" y="560" width="400" height="40" as="geometry"/>
                </mxCell>
                <mxCell id="Xe_aW2JwXNB1X_NBn5dn-18" value="3. Atualizar o saldo da carteira&amp;nbsp;" style="rounded=0;whiteSpace=wrap;html=1;fontSize=15;align=left;" vertex="1" parent="1">
                    <mxGeometry x="-413" y="520" width="400" height="40" as="geometry"/>
                </mxCell>
                <mxCell id="Xe_aW2JwXNB1X_NBn5dn-19" value="" style="rounded=0;whiteSpace=wrap;html=1;fontSize=15;align=left;" vertex="1" parent="1">
                    <mxGeometry x="-413" y="560" width="400" height="40" as="geometry"/>
                </mxCell>
                <mxCell id="Xe_aW2JwXNB1X_NBn5dn-20" value="" style="rounded=0;whiteSpace=wrap;html=1;fontSize=15;align=left;" vertex="1" parent="1">
                    <mxGeometry x="-413" y="600" width="400" height="40" as="geometry"/>
                </mxCell>
                <mxCell id="Xe_aW2JwXNB1X_NBn5dn-21" value="" style="rounded=0;whiteSpace=wrap;html=1;fontSize=15;align=left;" vertex="1" parent="1">
                    <mxGeometry x="-813" y="600" width="400" height="40" as="geometry"/>
                </mxCell>
                <mxCell id="Xe_aW2JwXNB1X_NBn5dn-22" value="&lt;b&gt;Fluxo Alternativo (1)&lt;/b&gt;" style="rounded=0;whiteSpace=wrap;html=1;fontSize=15;align=left;" vertex="1" parent="1">
                    <mxGeometry x="-813" y="640" width="800" height="40" as="geometry"/>
                </mxCell>
                <mxCell id="Xe_aW2JwXNB1X_NBn5dn-23" value="O cliente que fez a transferência não existe, cancelar o recebimento" style="rounded=0;whiteSpace=wrap;html=1;fontSize=15;align=left;" vertex="1" parent="1">
                    <mxGeometry x="-813" y="680" width="800" height="40" as="geometry"/>
                </mxCell>
                <mxCell id="Xe_aW2JwXNB1X_NBn5dn-24" value="&lt;b&gt;Fluxo Alternativo (2)&lt;/b&gt;" style="rounded=0;whiteSpace=wrap;html=1;fontSize=15;align=left;" vertex="1" parent="1">
                    <mxGeometry x="-813" y="720" width="800" height="40" as="geometry"/>
                </mxCell>
                <mxCell id="Xe_aW2JwXNB1X_NBn5dn-25" value="O valor de transferência recebido é menor ou igual à 0 (zero), cancelar o recebimento" style="rounded=0;whiteSpace=wrap;html=1;fontSize=15;align=left;" vertex="1" parent="1">
                    <mxGeometry x="-813" y="760" width="800" height="40" as="geometry"/>
                </mxCell>
                <mxCell id="Xe_aW2JwXNB1X_NBn5dn-28" value="" style="rounded=0;whiteSpace=wrap;html=1;fontSize=15;align=left;" vertex="1" parent="1">
                    <mxGeometry x="-813" y="480" width="400" height="40" as="geometry"/>
                </mxCell>
                <mxCell id="Xe_aW2JwXNB1X_NBn5dn-29" value="2. Validar se o valor recebido é maior que 0 (zero)" style="rounded=0;whiteSpace=wrap;html=1;fontSize=15;align=left;" vertex="1" parent="1">
                    <mxGeometry x="-413" y="480" width="400" height="40" as="geometry"/>
                </mxCell>
                <mxCell id="Xe_aW2JwXNB1X_NBn5dn-44" value="" style="rounded=0;whiteSpace=wrap;html=1;fontSize=15;align=left;" vertex="1" parent="1">
                    <mxGeometry x="14" y="520" width="400" height="40" as="geometry"/>
                </mxCell>
                <mxCell id="Xe_aW2JwXNB1X_NBn5dn-45" value="3. Validar se o valor de transferência é menor ou igual à 0 (zero)" style="rounded=0;whiteSpace=wrap;html=1;fontSize=15;align=left;" vertex="1" parent="1">
                    <mxGeometry x="414" y="520" width="400" height="40" as="geometry"/>
                </mxCell>
                <mxCell id="Xe_aW2JwXNB1X_NBn5dn-46" value="&lt;b&gt;Fluxo Alternativo (4)&lt;/b&gt;" style="rounded=0;whiteSpace=wrap;html=1;fontSize=15;align=left;" vertex="1" parent="1">
                    <mxGeometry x="14" y="920" width="800" height="40" as="geometry"/>
                </mxCell>
                <mxCell id="Xe_aW2JwXNB1X_NBn5dn-47" value="O sistema de pagamento externo está indisponível ou instável, cancelar transação e devolver o saldo para o cliente" style="rounded=0;whiteSpace=wrap;html=1;fontSize=15;align=left;" vertex="1" parent="1">
                    <mxGeometry x="14" y="960" width="800" height="40" as="geometry"/>
                </mxCell>
                <mxCell id="Xe_aW2JwXNB1X_NBn5dn-48" value="Nome" style="rounded=0;whiteSpace=wrap;html=1;fontSize=15;align=left;" vertex="1" parent="1">
                    <mxGeometry x="-1641" y="120" width="400" height="40" as="geometry"/>
                </mxCell>
                <mxCell id="Xe_aW2JwXNB1X_NBn5dn-49" value="&lt;div style=&quot;&quot;&gt;Visualizar Saldo&lt;/div&gt;" style="rounded=0;whiteSpace=wrap;html=1;fontSize=15;align=left;" vertex="1" parent="1">
                    <mxGeometry x="-1241" y="120" width="400" height="40" as="geometry"/>
                </mxCell>
                <mxCell id="Xe_aW2JwXNB1X_NBn5dn-50" value="Atores" style="rounded=0;whiteSpace=wrap;html=1;fontSize=15;align=left;" vertex="1" parent="1">
                    <mxGeometry x="-1641" y="160" width="400" height="40" as="geometry"/>
                </mxCell>
                <mxCell id="Xe_aW2JwXNB1X_NBn5dn-51" value="Cliente, Lojista" style="rounded=0;whiteSpace=wrap;html=1;fontSize=15;align=left;" vertex="1" parent="1">
                    <mxGeometry x="-1241" y="160" width="400" height="40" as="geometry"/>
                </mxCell>
                <mxCell id="Xe_aW2JwXNB1X_NBn5dn-52" value="Resumo" style="rounded=0;whiteSpace=wrap;html=1;fontSize=15;align=left;" vertex="1" parent="1">
                    <mxGeometry x="-1641" y="200" width="400" height="80" as="geometry"/>
                </mxCell>
                <mxCell id="Xe_aW2JwXNB1X_NBn5dn-53" value="&lt;div style=&quot;&quot;&gt;Clientes e lojistas podem visualizar o saldo de suas carteiras&lt;/div&gt;" style="rounded=0;whiteSpace=wrap;html=1;fontSize=15;align=left;" vertex="1" parent="1">
                    <mxGeometry x="-1241" y="200" width="400" height="80" as="geometry"/>
                </mxCell>
                <mxCell id="Xe_aW2JwXNB1X_NBn5dn-54" value="Pré-Condições" style="rounded=0;whiteSpace=wrap;html=1;fontSize=15;align=left;" vertex="1" parent="1">
                    <mxGeometry x="-1641" y="280" width="400" height="40" as="geometry"/>
                </mxCell>
                <mxCell id="Xe_aW2JwXNB1X_NBn5dn-55" value="" style="rounded=0;whiteSpace=wrap;html=1;fontSize=15;align=left;" vertex="1" parent="1">
                    <mxGeometry x="-1241" y="280" width="400" height="40" as="geometry"/>
                </mxCell>
                <mxCell id="Xe_aW2JwXNB1X_NBn5dn-56" value="Pós-Condições" style="rounded=0;whiteSpace=wrap;html=1;fontSize=15;align=left;" vertex="1" parent="1">
                    <mxGeometry x="-1641" y="320" width="400" height="40" as="geometry"/>
                </mxCell>
                <mxCell id="Xe_aW2JwXNB1X_NBn5dn-57" value="" style="rounded=0;whiteSpace=wrap;html=1;fontSize=15;align=left;" vertex="1" parent="1">
                    <mxGeometry x="-1241" y="320" width="400" height="40" as="geometry"/>
                </mxCell>
                <mxCell id="Xe_aW2JwXNB1X_NBn5dn-58" value="&lt;b&gt;Fluxo Principal&lt;/b&gt;" style="rounded=0;whiteSpace=wrap;html=1;fontSize=15;align=left;" vertex="1" parent="1">
                    <mxGeometry x="-1641" y="360" width="800" height="40" as="geometry"/>
                </mxCell>
                <mxCell id="Xe_aW2JwXNB1X_NBn5dn-59" value="Ações do Ator" style="rounded=0;whiteSpace=wrap;html=1;fontSize=15;align=left;" vertex="1" parent="1">
                    <mxGeometry x="-1641" y="400" width="400" height="40" as="geometry"/>
                </mxCell>
                <mxCell id="Xe_aW2JwXNB1X_NBn5dn-60" value="Ações do Sistema" style="rounded=0;whiteSpace=wrap;html=1;fontSize=15;align=left;" vertex="1" parent="1">
                    <mxGeometry x="-1241" y="400" width="400" height="40" as="geometry"/>
                </mxCell>
                <mxCell id="Xe_aW2JwXNB1X_NBn5dn-61" value="1. Acessar o endpoint de visualização de saldo" style="rounded=0;whiteSpace=wrap;html=1;fontSize=15;align=left;" vertex="1" parent="1">
                    <mxGeometry x="-1641" y="440" width="400" height="40" as="geometry"/>
                </mxCell>
                <mxCell id="Xe_aW2JwXNB1X_NBn5dn-62" value="" style="rounded=0;whiteSpace=wrap;html=1;fontSize=15;align=left;" vertex="1" parent="1">
                    <mxGeometry x="-1241" y="440" width="400" height="40" as="geometry"/>
                </mxCell>
                <mxCell id="Xe_aW2JwXNB1X_NBn5dn-63" value="" style="rounded=0;whiteSpace=wrap;html=1;fontSize=15;align=left;" vertex="1" parent="1">
                    <mxGeometry x="-1641" y="520" width="400" height="40" as="geometry"/>
                </mxCell>
                <mxCell id="Xe_aW2JwXNB1X_NBn5dn-64" value="" style="rounded=0;whiteSpace=wrap;html=1;fontSize=15;align=left;" vertex="1" parent="1">
                    <mxGeometry x="-1641" y="560" width="400" height="40" as="geometry"/>
                </mxCell>
                <mxCell id="Xe_aW2JwXNB1X_NBn5dn-65" value="2. Retornar o saldo do usuário" style="rounded=0;whiteSpace=wrap;html=1;fontSize=15;align=left;" vertex="1" parent="1">
                    <mxGeometry x="-1241" y="520" width="400" height="40" as="geometry"/>
                </mxCell>
                <mxCell id="Xe_aW2JwXNB1X_NBn5dn-66" value="" style="rounded=0;whiteSpace=wrap;html=1;fontSize=15;align=left;" vertex="1" parent="1">
                    <mxGeometry x="-1241" y="560" width="400" height="40" as="geometry"/>
                </mxCell>
                <mxCell id="Xe_aW2JwXNB1X_NBn5dn-67" value="" style="rounded=0;whiteSpace=wrap;html=1;fontSize=15;align=left;" vertex="1" parent="1">
                    <mxGeometry x="-1241" y="600" width="400" height="40" as="geometry"/>
                </mxCell>
                <mxCell id="Xe_aW2JwXNB1X_NBn5dn-68" value="" style="rounded=0;whiteSpace=wrap;html=1;fontSize=15;align=left;" vertex="1" parent="1">
                    <mxGeometry x="-1641" y="600" width="400" height="40" as="geometry"/>
                </mxCell>
                <mxCell id="Xe_aW2JwXNB1X_NBn5dn-69" value="&lt;b&gt;Fluxo Alternativo (1)&lt;/b&gt;" style="rounded=0;whiteSpace=wrap;html=1;fontSize=15;align=left;" vertex="1" parent="1">
                    <mxGeometry x="-1641" y="640" width="800" height="40" as="geometry"/>
                </mxCell>
                <mxCell id="Xe_aW2JwXNB1X_NBn5dn-70" value="O cliente não existe, retornar mensagem de erro amigável" style="rounded=0;whiteSpace=wrap;html=1;fontSize=15;align=left;" vertex="1" parent="1">
                    <mxGeometry x="-1641" y="680" width="800" height="40" as="geometry"/>
                </mxCell>
                <mxCell id="Xe_aW2JwXNB1X_NBn5dn-73" value="" style="rounded=0;whiteSpace=wrap;html=1;fontSize=15;align=left;" vertex="1" parent="1">
                    <mxGeometry x="-1641" y="480" width="400" height="40" as="geometry"/>
                </mxCell>
                <mxCell id="Xe_aW2JwXNB1X_NBn5dn-74" value="1. Validar se o usuário existe" style="rounded=0;whiteSpace=wrap;html=1;fontSize=15;align=left;" vertex="1" parent="1">
                    <mxGeometry x="-1241" y="480" width="400" height="40" as="geometry"/>
                </mxCell>
            </root>
        </mxGraphModel>
    </diagram>
</mxfile>